Coordinates
version=1
nRows=41
nColumns=38
inDegrees=no

Units are S.I. units (second, meters, Newtons, ...)
If the header above contains a line with 'inDegrees', this indicates whether rotational values are in degrees (yes) or radians (no).

endheader
time	pelvis_tilt	pelvis_list	pelvis_rotation	pelvis_tx	pelvis_ty	pelvis_tz	hip_flexion_r	hip_adduction_r	hip_rotation_r	knee_angle_r	ankle_angle_r	subtalar_angle_r	mtp_angle_r	hip_flexion_l	hip_adduction_l	hip_rotation_l	knee_angle_l	ankle_angle_l	subtalar_angle_l	mtp_angle_l	lumbar_extension	lumbar_bending	lumbar_rotation	arm_flex_r	arm_add_r	arm_rot_r	elbow_flex_r	pro_sup_r	wrist_flex_r	wrist_dev_r	arm_flex_l	arm_add_l	arm_rot_l	elbow_flex_l	pro_sup_l	wrist_flex_l	wrist_dev_l
10	1.18039	1.51122	0.419046	0.804412	1.57359	0.969095	0.355229	0.0479821	-0.272973	0.409284	-0.0477669	0	0	0.2506	-0.144105	-0.187229	0.705831	0.21367	0	0	-0.0106489	0.148273	0.0796984	0.603013	-0.390365	0.434534	1.30422	1.5708	0	0	0.745217	-0.125601	0.385204	0.889001	0.76276	0	0
10.01	1.20767	1.51081	0.393808	0.803225	1.57092	0.968928	0.355603	0.0469685	-0.275079	0.407178	-0.050713	0	0	0.245228	-0.145528	-0.181739	0.719871	0.218302	0	0	-0.00893121	0.146707	0.08036	0.595716	-0.395847	0.427809	1.30846	1.5708	0	0	0.742536	-0.119724	0.386168	0.887931	0.782473	0	0
10.02	1.25343	1.51023	0.351105	0.801999	1.56811	0.968698	0.35496	0.0461582	-0.278494	0.405074	-0.0536709	0	0	0.239023	-0.147062	-0.174355	0.733116	0.223185	0	0	-0.00677373	0.142927	0.0872694	0.579915	-0.405678	0.409887	1.31664	1.5708	0	0	0.762029	-0.133312	0.656224	0.805078	1.5708	0	0
10.03	1.276	1.50923	0.330936	0.800697	1.56528	0.968465	0.355692	0.0453099	-0.281213	0.402667	-0.0569767	0	0	0.233147	-0.147909	-0.166824	0.743218	0.227583	0	0	-0.00461062	0.141768	0.0867274	0.574225	-0.411229	0.407764	1.31892	1.5708	0	0	0.757988	-0.126406	0.649399	0.802837	1.5708	0	0
10.04	1.29818	1.50786	0.311404	0.799275	1.56235	0.968187	0.356603	0.0444554	-0.284651	0.400317	-0.060288	0	0	0.227331	-0.148705	-0.158624	0.751845	0.2321	0	0	-0.00228984	0.140814	0.0861444	0.568211	-0.416831	0.404157	1.32146	1.5708	0	0	0.755324	-0.119605	0.646955	0.799468	1.5708	0	0
10.05	1.31785	1.5064	0.294499	0.797751	1.5593	0.967881	0.357706	0.0433822	-0.288234	0.397985	-0.0636067	0	0	0.221237	-0.148959	-0.149541	0.758109	0.235418	0	0	0.000130589	0.1398	0.0851547	0.56204	-0.421074	0.397606	1.32347	1.5708	0	0	0.752982	-0.112738	0.644755	0.795644	1.5708	0	0
10.06	1.3302	1.50485	0.285005	0.796133	1.55612	0.967511	0.359505	0.0420157	-0.292147	0.395818	-0.0671372	0	0	0.21554	-0.148517	-0.139469	0.762432	0.236738	0	0	0.00278789	0.138762	0.0841155	0.556288	-0.425269	0.390514	1.32564	1.5708	0	0	0.750771	-0.105472	0.642199	0.791594	1.5708	0	0
10.07	1.33448	1.50337	0.283549	0.794453	1.55283	0.967068	0.362126	0.0403715	-0.295905	0.3939	-0.0709913	0	0	0.209967	-0.14731	-0.12871	0.764094	0.23723	0	0	0.0056382	0.137531	0.0831983	0.551036	-0.43028	0.385138	1.32866	1.5708	0	0	0.748645	-0.0978722	0.639182	0.787431	1.5708	0	0
10.08	1.32719	1.50186	0.293848	0.792736	1.54941	0.966519	0.366017	0.0384294	-0.29932	0.392645	-0.0745609	0	0	0.205043	-0.14551	-0.117352	0.763338	0.236878	0	0	0.00913246	0.135909	0.0821779	0.54555	-0.435587	0.379754	1.33248	1.5708	0	0	0.746735	-0.0900572	0.63602	0.783141	1.5708	0	0
10.09	1.31417	1.50042	0.309949	0.790989	1.54583	0.9659	0.370604	0.0363227	-0.302352	0.39157	-0.0781595	0	0	0.200174	-0.142965	-0.105416	0.759726	0.235609	0	0	0.0128846	0.133828	0.0810393	0.539408	-0.440431	0.37299	1.33679	1.5708	0	0	0.745064	-0.0821963	0.632769	0.778929	1.5708	0	0
10.1	1.29807	1.49913	0.32878	0.789252	1.54216	0.965254	0.375632	0.0341135	-0.304955	0.390593	-0.0820597	0	0	0.194826	-0.139931	-0.0937823	0.753036	0.233507	0	0	0.0165773	0.131365	0.0805718	0.532389	-0.445805	0.365747	1.34176	1.5708	0	0	0.743461	-0.0741749	0.62893	0.775331	1.5708	0	0
10.11	1.04801	1.46994	0.564987	0.78786	1.53378	0.965629	0.425664	0.0372787	-0.366447	0.402798	-0.112908	0	0	0.216646	-0.164032	-0.122433	0.720308	0.218207	0	0	0.0384191	0.155633	0.0862863	0.541916	-0.450316	0.373378	1.33691	1.5708	0	0	0.715617	-0.0341952	0.302822	0.85465	0.804333	0	0
10.12	1.21965	1.49407	0.411866	0.78543	1.53432	0.963582	0.391469	0.0300563	-0.309707	0.389549	-0.0918734	0	0	0.188424	-0.133974	-0.0723076	0.733111	0.227287	0	0	0.0262844	0.130229	0.0733458	0.527243	-0.454856	0.363087	1.34782	1.5708	0	0	0.717822	-0.0339104	0.32212	0.856822	0.847482	0	0
10.13	1.21403	1.49211	0.42092	0.783346	1.53007	0.96276	0.396377	0.028071	-0.31211	0.387603	-0.0970884	0	0	0.182519	-0.130811	-0.0609992	0.719729	0.223791	0	0	0.0283527	0.12857	0.0727952	0.521021	-0.462349	0.356544	1.35361	1.5708	0	0	0.717118	-0.0252659	0.315057	0.856518	0.837847	0	0
10.14	1.19126	1.48948	0.44592	0.781309	1.52566	0.96173	0.403839	0.026083	-0.314646	0.387017	-0.101751	0	0	0.178045	-0.128103	-0.0522644	0.705143	0.225234	0	0	0.0316975	0.12705	0.073065	0.515846	-0.469678	0.350836	1.35867	1.5708	0	0	0.715343	-0.014396	0.29828	0.856409	0.83405	0	0
10.15	1.17142	1.4869	0.467766	0.779226	1.52108	0.960637	0.411256	0.0240335	-0.317261	0.386272	-0.106442	0	0	0.17306	-0.125342	-0.0449075	0.688314	0.232961	0	0	0.0343818	0.12536	0.073721	0.51158	-0.477789	0.346262	1.36364	1.5708	0	0	0.71429	-0.00370211	0.284429	0.856695	0.829348	0	0
10.16	1.1531	1.48447	0.487776	0.777131	1.51632	0.959506	0.418706	0.0219336	-0.319569	0.385305	-0.111482	0	0	0.167566	-0.122532	-0.0397888	0.667643	0.244196	0	0	0.0364318	0.123322	0.074701	0.507747	-0.485818	0.341007	1.36831	1.5708	0	0	0.714101	0.00721406	0.271515	0.856691	0.830167	0	0
10.17	1.13587	1.48203	0.506615	0.775026	1.51137	0.958313	0.426427	0.0197364	-0.321913	0.384499	-0.116441	0	0	0.162262	-0.120092	-0.0374418	0.644359	0.257355	0	0	0.0379924	0.121092	0.0757719	0.50448	-0.493562	0.334992	1.37237	1.5708	0	0	0.715154	0.0173541	0.262559	0.856596	0.832092	0	0
10.18	1.12035	1.47976	0.523845	0.772875	1.50621	0.957085	0.43421	0.0171518	-0.324828	0.383734	-0.121615	0	0	0.157388	-0.117924	-0.0380507	0.620696	0.269771	0	0	0.0388953	0.118464	0.0770444	0.501588	-0.502095	0.329486	1.37675	1.5708	0	0	0.717344	0.0285799	0.251293	0.855256	0.836544	0	0
10.19	1.10617	1.47801	0.540219	0.7707	1.50083	0.955906	0.441633	0.0138785	-0.328383	0.382585	-0.12731	0	0	0.153072	-0.115132	-0.0399506	0.598703	0.280877	0	0	0.0390972	0.115096	0.0777203	0.49961	-0.510624	0.325202	1.37981	1.5708	0	0	0.720373	0.0384998	0.243946	0.854094	0.840959	0	0
10.2	1.09019	1.47713	0.559016	0.768459	1.49523	0.954866	0.448445	0.00954574	-0.332171	0.380372	-0.134357	0	0	0.149825	-0.110774	-0.0421874	0.578504	0.28985	0	0	0.0385422	0.110437	0.0780985	0.497111	-0.519161	0.320048	1.38219	1.5708	0	0	0.724207	0.0482821	0.237326	0.852575	0.84578	0	0
10.21	1.07237	1.47733	0.580203	0.766141	1.48941	0.954034	0.454452	0.00394032	-0.335858	0.377216	-0.141734	0	0	0.148282	-0.105044	-0.0452109	0.560436	0.2943	0	0	0.0370093	0.104305	0.0783668	0.493869	-0.526891	0.312205	1.38396	1.5708	0	0	0.728603	0.0582743	0.233319	0.850622	0.877819	0	0
10.22	1.0571	1.47887	0.599012	0.763823	1.48336	0.953456	0.459162	-0.00268309	-0.339153	0.373322	-0.149042	0	0	0.147706	-0.0981265	-0.0489013	0.544828	0.295736	0	0	0.0338222	0.0968793	0.0784564	0.491023	-0.53368	0.304586	1.38493	1.5708	0	0	0.733577	0.0665598	0.232506	0.850039	0.878981	0	0
10.23	1.04124	1.48153	0.618918	0.761502	1.47708	0.953085	0.462894	-0.010339	-0.342514	0.36861	-0.156693	0	0	0.147916	-0.0897657	-0.0513084	0.530968	0.29506	0	0	0.029205	0.0882173	0.0782869	0.489197	-0.541339	0.299435	1.38556	1.5708	0	0	0.739034	0.0741499	0.234773	0.850128	0.880057	0	0
10.24	1.01967	1.48496	0.644748	0.759179	1.47058	0.952854	0.466367	-0.0191242	-0.345879	0.363458	-0.164376	0	0	0.149214	-0.0802809	-0.0526224	0.518733	0.292704	0	0	0.0238762	0.0784877	0.0777832	0.487962	-0.54853	0.293902	1.38547	1.5708	0	0	0.745688	0.0815106	0.235279	0.848621	0.882247	0	0
10.25	0.989187	1.48884	0.67881	0.756889	1.46396	0.95273	0.469802	-0.0285751	-0.348564	0.357623	-0.171499	0	0	0.151334	-0.070227	-0.0541467	0.507522	0.288819	0	0	0.0184417	0.0681109	0.0778046	0.486932	-0.555681	0.289008	1.38514	1.5708	0	0	0.753001	0.0885984	0.236032	0.845669	0.883737	0	0
10.26	0.955656	1.49234	0.714972	0.754659	1.45731	0.952648	0.473312	-0.0377787	-0.351363	0.351658	-0.177497	0	0	0.154023	-0.0609897	-0.0567	0.497319	0.284553	0	0	0.0131861	0.0583144	0.0781391	0.487333	-0.563367	0.286968	1.38435	1.5708	0	0	0.760124	0.0950014	0.237472	0.84336	0.883931	0	0
10.27	0.931018	1.49532	0.740907	0.752457	1.45055	0.952429	0.476956	-0.0461635	-0.354516	0.346895	-0.181333	0	0	0.156987	-0.0533447	-0.0605262	0.488803	0.281235	0	0	0.00684078	0.0521249	0.0797541	0.509281	-0.565785	0.32032	1.41279	1.5708	0	0	0.767487	0.101057	0.237734	0.842011	0.873603	0	0
10.28	0.858442	1.49563	0.813856	0.750555	1.44396	0.95208	0.485174	-0.0547718	-0.357326	0.34248	-0.184388	0	0	0.164953	-0.0462561	-0.0653289	0.481413	0.277221	0	0	0.00717509	0.0405678	0.0824357	0.486389	-0.577526	0.280247	1.38176	1.5708	0	0	0.776153	0.108049	0.245382	0.833984	0.884034	0	0
10.29	0.807446	1.49511	0.864016	0.748614	1.43731	0.951548	0.493315	-0.0623349	-0.361457	0.339629	-0.185212	0	0	0.172863	-0.0415838	-0.0712117	0.475965	0.275116	0	0	0.00619711	0.0338502	0.0855869	0.487107	-0.585477	0.279554	1.38034	1.5708	0	0	0.78436	0.114584	0.248301	0.827755	0.881412	0	0
10.3	0.760645	1.49325	0.909966	0.746647	1.4307	0.950893	0.502287	-0.0696328	-0.36661	0.337474	-0.184082	0	0	0.18193	-0.0380795	-0.0760267	0.471215	0.273511	0	0	0.00639217	0.0287166	0.0881846	0.488841	-0.593155	0.279114	1.37823	1.5708	0	0	0.79178	0.120778	0.250896	0.82283	0.876576	0	0
10.31	0.722087	1.4904	0.948337	0.744606	1.42414	0.950141	0.511396	-0.0767383	-0.372251	0.335888	-0.180833	0	0	0.191872	-0.0352605	-0.0788318	0.467277	0.272332	0	0	0.00729103	0.0250597	0.0896065	0.491641	-0.600662	0.279179	1.37523	1.5708	0	0	0.798551	0.126762	0.251806	0.819502	0.869567	0	0
10.32	0.702335	1.48775	0.96805	0.742648	1.41772	0.949458	0.519109	-0.0831202	-0.378638	0.334795	-0.175645	0	0	0.200522	-0.033364	-0.0811043	0.463307	0.271328	0	0	0.00736049	0.0225846	0.0903153	0.494642	-0.607894	0.281903	1.37192	1.5708	0	0	0.804469	0.132274	0.255063	0.817212	0.891806	0	0
10.33	0.694885	1.48563	0.97523	0.740836	1.41143	0.94887	0.525588	-0.0887931	-0.38396	0.334324	-0.169076	0	0	0.207691	-0.0317908	-0.0836683	0.458859	0.269961	0	0	0.0066155	0.020747	0.0906536	0.498068	-0.613852	0.283347	1.36769	1.5708	0	0	0.810642	0.137241	0.251301	0.814507	0.841594	0	0
10.34	0.696526	1.4841	0.973148	0.739164	1.40528	0.948403	0.530669	-0.093414	-0.386683	0.334247	-0.162696	0	0	0.213371	-0.0302247	-0.0863055	0.453736	0.267873	0	0	0.00504374	0.0191203	0.0904426	0.501444	-0.618309	0.284746	1.36322	1.5708	0	0	0.815657	0.141522	0.253727	0.81302	0.854366	0	0
10.35	0.695104	1.48308	0.973515	0.737674	1.39924	0.948049	0.535533	-0.0973222	-0.38476	0.335753	-0.157148	0	0	0.217899	-0.0278182	-0.0885424	0.447239	0.264327	0	0	0.0034011	0.0167913	0.0905193	0.504211	-0.621892	0.287079	1.35868	1.5708	0	0	0.81936	0.145404	0.264299	0.811629	0.951652	0	0
10.36	0.695019	1.48257	0.972066	0.736357	1.3933	0.947867	0.539654	-0.100038	-0.377412	0.338679	-0.151636	0	0	0.221335	-0.0249786	-0.0895916	0.439849	0.259572	0	0	0.00134986	0.0143593	0.0907867	0.506308	-0.624098	0.287827	1.35434	1.5708	0	0	0.822527	0.149149	0.263749	0.811475	0.956681	0	0
10.37	0.693666	1.48259	0.971294	0.735183	1.38744	0.947864	0.543341	-0.101977	-0.365463	0.343452	-0.144346	0	0	0.224154	-0.0216781	-0.0894056	0.432252	0.253505	0	0	-0.000947807	0.0115055	0.0915658	0.50764	-0.62522	0.286774	1.34995	1.5708	0	0	0.824641	0.152943	0.262207	0.81241	0.961982	0	0
10.38	0.696755	1.48331	0.965658	0.734107	1.3817	0.948077	0.545971	-0.103115	-0.350073	0.35005	-0.135332	0	0	0.226377	-0.0184947	-0.0884898	0.425385	0.246419	0	0	-0.00398269	0.00861592	0.0927871	0.508097	-0.625838	0.28466	1.34556	1.5708	0	0	0.825744	0.157006	0.259724	0.81435	0.967681	0	0
10.39	0.706473	1.48467	0.953051	0.733151	1.37608	0.94854	0.547528	-0.103652	-0.333354	0.358998	-0.124859	0	0	0.228309	-0.015797	-0.0876689	0.419817	0.23852	0	0	-0.00774331	0.00592376	0.0943166	0.507628	-0.625821	0.283453	1.3416	1.5708	0	0	0.826376	0.161148	0.250706	0.817138	0.910248	0	0
10.4	0.714615	1.48664	0.941101	0.732309	1.3706	0.949179	0.549305	-0.104468	-0.317352	0.371828	-0.113546	0	0	0.230019	-0.0130378	-0.0876751	0.414907	0.229845	0	0	-0.0117618	0.00271141	0.0969183	0.506397	-0.625297	0.280538	1.33725	1.5708	0	0	0.825734	0.165483	0.246799	0.820567	0.915409	0	0
